<svg width="38" height="38" viewBox="0 0 38 38" fill="none" xmlns="http://www.w3.org/2000/svg">
<path fill-rule="evenodd" clip-rule="evenodd" d="M18.6644 2.3333C14.3331 2.3333 10.1791 4.05392 7.11641 7.11664C4.05368 10.1794 2.33306 14.3333 2.33306 18.6647C2.33306 22.996 4.05368 27.15 7.11641 30.2127C10.1791 33.2754 14.3331 34.996 18.6644 34.996C22.9958 34.996 27.1497 33.2754 30.2125 30.2127C33.2752 27.15 34.9958 22.996 34.9958 18.6647C34.9958 14.3333 33.2752 10.1794 30.2125 7.11664C27.1497 4.05392 22.9958 2.3333 18.6644 2.3333ZM18.6644 37.3291C13.7143 37.3291 8.96694 35.3627 5.46668 31.8624C1.96643 28.3621 2.78247e-06 23.6148 2.99885e-06 18.6647C3.21523e-06 13.7146 1.96643 8.96718 5.46669 5.46693C8.96695 1.96667 13.7143 0.000243108 18.6644 0.000243325C23.6145 0.000243541 28.3619 1.96667 31.8622 5.46693C35.3624 8.96719 37.3289 13.7146 37.3289 18.6647C37.3289 23.6148 35.3624 28.3622 31.8622 31.8624C28.3619 35.3627 23.6145 37.3291 18.6644 37.3291ZM26.8301 19.8312C27.1395 19.8312 27.4362 19.7083 27.655 19.4895C27.8737 19.2708 27.9966 18.974 27.9966 18.6647C27.9966 18.3553 27.8737 18.0586 27.655 17.8398C27.4362 17.621 27.1395 17.4981 26.8301 17.4981L13.3147 17.4981L18.3238 12.4914C18.5428 12.2724 18.6659 11.9753 18.6659 11.6655C18.6659 11.3557 18.5428 11.0586 18.3238 10.8396C18.1048 10.6206 17.8077 10.4975 17.4979 10.4975C17.1881 10.4975 16.891 10.6206 16.672 10.8396L9.67284 17.8388C9.56421 17.9471 9.47802 18.0759 9.41921 18.2176C9.3604 18.3593 9.33013 18.5112 9.33013 18.6647C9.33013 18.8181 9.3604 18.97 9.41921 19.1118C9.47802 19.2535 9.56421 19.3822 9.67284 19.4906L16.672 26.4897C16.891 26.7088 17.1881 26.8318 17.4979 26.8318C17.8077 26.8318 18.1048 26.7088 18.3238 26.4897C18.5428 26.2707 18.6659 25.9736 18.6659 25.6638C18.6659 25.3541 18.5428 25.057 18.3238 24.8379L13.3147 19.8312L26.8301 19.8312Z" fill="#E0AF57"/>
</svg>
