<svg width="38" height="38" viewBox="0 0 38 38" fill="none" xmlns="http://www.w3.org/2000/svg">
<path fill-rule="evenodd" clip-rule="evenodd" d="M18.6644 34.9958C22.9958 34.9958 27.1497 33.2752 30.2124 30.2125C33.2752 27.1497 34.9958 22.9958 34.9958 18.6644C34.9958 14.3331 33.2752 10.1791 30.2124 7.11641C27.1497 4.05369 22.9958 2.33306 18.6644 2.33306C14.3331 2.33306 10.1791 4.05369 7.1164 7.11641C4.05367 10.1791 2.33305 14.3331 2.33305 18.6644C2.33305 22.9958 4.05367 27.1497 7.1164 30.2125C10.1791 33.2752 14.3331 34.9958 18.6644 34.9958ZM18.6644 1.06282e-05C23.6145 1.04119e-05 28.3619 1.96643 31.8622 5.46669C35.3624 8.96695 37.3289 13.7143 37.3289 18.6644C37.3289 23.6145 35.3624 28.3619 31.8622 31.8622C28.3619 35.3624 23.6145 37.3289 18.6644 37.3289C13.7143 37.3289 8.96694 35.3624 5.46668 31.8622C1.96642 28.3619 -5.99472e-07 23.6145 -8.15848e-07 18.6644C-1.03222e-06 13.7143 1.96642 8.96695 5.46668 5.46669C8.96694 1.96643 13.7143 1.08446e-05 18.6644 1.06282e-05ZM10.4987 17.4979C10.1894 17.4979 9.89265 17.6208 9.67388 17.8396C9.45511 18.0583 9.33221 18.3551 9.33221 18.6644C9.33221 18.9738 9.45511 19.2705 9.67388 19.4893C9.89265 19.7081 10.1894 19.831 10.4987 19.831L24.0141 19.831L19.0051 24.8377C18.786 25.0567 18.663 25.3538 18.663 25.6636C18.663 25.9734 18.786 26.2705 19.0051 26.4895C19.2241 26.7085 19.5212 26.8316 19.831 26.8316C20.1407 26.8316 20.4378 26.7085 20.6569 26.4895L27.656 19.4903C27.7646 19.382 27.8508 19.2532 27.9096 19.1115C27.9685 18.9698 27.9987 18.8179 27.9987 18.6644C27.9987 18.511 27.9685 18.3591 27.9096 18.2173C27.8508 18.0756 27.7646 17.9469 27.656 17.8385L20.6569 10.8394C20.4378 10.6203 20.1407 10.4973 19.831 10.4973C19.5212 10.4973 19.2241 10.6203 19.0051 10.8394C18.786 11.0584 18.663 11.3555 18.663 11.6653C18.663 11.975 18.786 12.2721 19.0051 12.4912L24.0141 17.4979L10.4987 17.4979Z" fill="#E0AF57"/>
</svg>
