<svg width="30" height="30" viewBox="0 0 30 30" fill="none" xmlns="http://www.w3.org/2000/svg">
<path d="M16.7039 26.7645C16.774 26.839 16.8586 26.8983 16.9525 26.9388C17.0464 26.9794 17.1476 27.0003 17.2499 27.0003C17.3522 27.0003 17.4534 26.9794 17.5473 26.9388C17.6412 26.8983 17.7258 26.839 17.7959 26.7645L23.7959 20.3895C23.8635 20.3178 23.9162 20.2335 23.9512 20.1414C23.9862 20.0493 24.0027 19.9512 23.9998 19.8527C23.9939 19.6538 23.9092 19.4655 23.7644 19.329C23.6196 19.1925 23.4265 19.1192 23.2276 19.1251C23.1292 19.128 23.0322 19.1503 22.9424 19.1907C22.8525 19.2311 22.7715 19.2888 22.7039 19.3605L17.9999 24.36L17.9999 7.5C17.9999 6.30653 17.5258 5.16193 16.6819 4.31802C15.838 3.4741 14.6934 3 13.4999 3L6.7499 3C6.55099 3 6.36022 3.07902 6.21957 3.21967C6.07892 3.36032 5.9999 3.55109 5.9999 3.75C5.9999 3.94891 6.07892 4.13968 6.21957 4.28033C6.36022 4.42098 6.55099 4.5 6.7499 4.5L13.4999 4.5C14.2956 4.5 15.0586 4.81607 15.6212 5.37868C16.1838 5.94129 16.4999 6.70435 16.4999 7.5L16.4999 24.36L11.7959 19.3605C11.6595 19.2157 11.4711 19.131 11.2722 19.1251C11.0733 19.1192 10.8802 19.1925 10.7354 19.329C10.5906 19.4655 10.5059 19.6538 10.5 19.8527C10.4941 20.0516 10.5674 20.2447 10.7039 20.3895L16.7039 26.7645Z" fill="#DEDEDE"/>
</svg>
