<svg width="34" height="34" viewBox="0 0 34 34" fill="none" xmlns="http://www.w3.org/2000/svg">
<circle cx="17" cy="17" r="17" fill="#E0AF57"/>
<path fill-rule="evenodd" clip-rule="evenodd" d="M12.2215 12.208H21.7622C22.3016 12.1937 22.8292 12.3754 23.2557 12.7224L22.7121 13.0925L16.9739 16.9691L15.4804 15.9498C15.4496 15.919 15.4129 15.8955 15.3728 15.8808L11.2686 13.0893L10.7279 12.7224C11.1481 12.363 11.6802 12.1797 12.2215 12.208ZM10.3515 13.2054L10.8563 13.5504L14.8022 16.2446L10.8922 20.5102L10.468 20.9713C10.1733 20.5391 10.0183 20.0192 10.0259 19.4877L10.0289 14.5039C10.0247 14.0486 10.136 13.6004 10.3515 13.2054ZM22.6762 20.9336L18.6884 16.5927L17.165 17.6278L17.1143 17.6529H17.0904C17.0656 17.6562 17.0405 17.6562 17.0157 17.6529C16.9909 17.6562 16.9658 17.6562 16.941 17.6529H16.9171L16.8454 17.6278L15.3339 16.599L11.3253 20.9461L10.8951 21.4135C11.2897 21.6799 11.7527 21.8124 12.2214 21.793H21.7801C22.247 21.7961 22.7047 21.6566 23.0974 21.3915L22.6762 20.9336ZM23.9726 14.5133V19.4877C23.9926 20.018 23.841 20.5398 23.5425 20.9681L23.1153 20.5008L19.2082 16.232L23.1512 13.5504L23.659 13.2085C23.8773 13.6042 23.9859 14.0561 23.9726 14.5133Z" fill="white"/>
</svg>
