<svg width="44" height="44" viewBox="0 0 44 44" fill="none" xmlns="http://www.w3.org/2000/svg">
<circle cx="21.855" cy="21.855" r="21.855" fill="white"/>
<path d="M27.7441 7.285H15.966C11.1793 7.285 7.28503 11.1793 7.28503 15.966V27.744C7.28503 32.5307 11.1793 36.425 15.966 36.425H27.7441C32.5308 36.425 36.425 32.5307 36.425 27.744V15.966C36.425 11.1793 32.5307 7.285 27.7441 7.285ZM33.4935 27.744C33.4935 30.9194 30.9194 33.4935 27.7441 33.4935H15.966C12.7907 33.4935 10.2165 30.9194 10.2165 27.744V15.966C10.2165 12.7906 12.7907 10.2165 15.966 10.2165H27.7441C30.9194 10.2165 33.4935 12.7906 33.4935 15.966V27.744Z" fill="url(#paint0_linear_175_102)"/>
<path d="M21.855 14.3183C17.6993 14.3183 14.3184 17.6993 14.3184 21.8549C14.3184 26.0106 17.6993 29.3916 21.855 29.3916C26.0107 29.3916 29.3916 26.0106 29.3916 21.8549C29.3916 17.6992 26.0107 14.3183 21.855 14.3183ZM21.855 26.4601C19.3116 26.4601 17.2498 24.3983 17.2498 21.855C17.2498 19.3116 19.3117 17.2498 21.855 17.2498C24.3984 17.2498 26.4602 19.3116 26.4602 21.855C26.4602 24.3983 24.3983 26.4601 21.855 26.4601Z" fill="url(#paint1_linear_175_102)"/>
<path d="M29.4063 16.1809C30.4037 16.1809 31.2122 15.3724 31.2122 14.375C31.2122 13.3776 30.4037 12.569 29.4063 12.569C28.4089 12.569 27.6003 13.3776 27.6003 14.375C27.6003 15.3724 28.4089 16.1809 29.4063 16.1809Z" fill="url(#paint2_linear_175_102)"/>
<defs>
<linearGradient id="paint0_linear_175_102" x1="21.855" y1="36.3402" x2="21.855" y2="7.51134" gradientUnits="userSpaceOnUse">
<stop stop-color="#E09B3D"/>
<stop offset="0.3" stop-color="#C74C4D"/>
<stop offset="0.6" stop-color="#C21975"/>
<stop offset="1" stop-color="#7024C4"/>
</linearGradient>
<linearGradient id="paint1_linear_175_102" x1="21.855" y1="36.3401" x2="21.855" y2="7.51131" gradientUnits="userSpaceOnUse">
<stop stop-color="#E09B3D"/>
<stop offset="0.3" stop-color="#C74C4D"/>
<stop offset="0.6" stop-color="#C21975"/>
<stop offset="1" stop-color="#7024C4"/>
</linearGradient>
<linearGradient id="paint2_linear_175_102" x1="29.4063" y1="36.3402" x2="29.4063" y2="7.51136" gradientUnits="userSpaceOnUse">
<stop stop-color="#E09B3D"/>
<stop offset="0.3" stop-color="#C74C4D"/>
<stop offset="0.6" stop-color="#C21975"/>
<stop offset="1" stop-color="#7024C4"/>
</linearGradient>
</defs>
</svg>
