<svg width="113" height="69" viewBox="0 0 113 69" fill="none" xmlns="http://www.w3.org/2000/svg">
<path d="M59.5832 33.8783C59.4887 33.8783 59.3942 33.8783 59.2997 33.8548C58.3546 33.6437 57.575 33.0571 57.1734 32.2594C56.7954 31.5321 56.7954 30.711 57.1261 29.9368C57.6695 28.8575 58.7799 28.3414 60.0793 28.5525C61.1188 28.7637 61.4968 29.3971 61.9693 30.1244L61.9929 30.1479C62.1111 30.4764 62.1819 30.8283 62.1583 31.1802C62.2056 31.8606 61.9221 32.5644 61.3314 33.1275C60.8353 33.5967 60.1974 33.8783 59.5832 33.8783ZM59.5359 28.881C58.6145 28.881 57.8821 29.3268 57.4805 30.101C57.197 30.7579 57.197 31.4852 57.5278 32.0952C57.8821 32.7991 58.5673 33.3152 59.3942 33.5029C59.9612 33.5733 60.5991 33.3387 61.0952 32.8694C61.5913 32.4002 61.8512 31.7902 61.8039 31.2037V31.1802V31.1568C61.8276 30.8518 61.7803 30.5468 61.6858 30.2652C61.2133 29.5145 60.8589 29.0452 60.0557 28.881C59.8667 28.881 59.7013 28.881 59.5359 28.881Z" fill="#E0AF57"/>
<path d="M58.6617 35.8725C57.9766 35.8725 57.2915 35.6848 56.6536 35.3094C55.4723 34.7229 54.5273 33.3386 54.3619 31.884C54.1493 29.6787 55.4014 27.8487 57.4568 27.2856H57.4805C59.9375 26.8868 62.678 27.8018 63.1033 30.3356C63.1742 30.7344 63.1978 31.1098 63.1505 31.5087C62.9852 33.1744 61.8984 34.7229 60.4336 35.4502C59.843 35.7317 59.2524 35.8725 58.6617 35.8725ZM57.5277 27.6375C55.6613 28.1537 54.5509 29.8429 54.7163 31.8371C54.8817 33.1744 55.7322 34.4413 56.8189 34.9809C57.9057 35.6379 59.1106 35.6613 60.2446 35.1217C61.6149 34.4413 62.6072 33.0102 62.7725 31.4617C62.7962 31.1098 62.7962 30.7344 62.7253 30.3825C62.3236 28.0833 59.8194 27.2621 57.5277 27.6375Z" fill="#E0AF57"/>
<path d="M57.386 37.9137C56.2992 37.9137 55.236 37.5852 54.2674 36.9283C52.0939 35.3564 51.078 32.4941 51.7868 29.9602C52.6845 27.0979 55.7794 25.3853 58.9925 25.9953C62.5599 26.5349 64.001 28.7637 64.1428 30.4764C64.1664 30.8752 64.1664 31.2975 64.1192 31.7433C63.812 34.1129 62.0638 36.3887 59.7957 37.3741C58.9925 37.7494 58.1892 37.9137 57.386 37.9137ZM57.7167 26.2299C55.1415 26.2299 52.8735 27.7314 52.1411 30.0541C51.456 32.4237 52.4246 35.1452 54.48 36.6233C56.0393 37.6791 57.8821 37.8198 59.6776 37.0456C61.8275 36.0837 63.4813 33.9487 63.7884 31.6964C63.8357 31.2975 63.8357 30.8987 63.812 30.4999C63.6939 28.9045 62.3473 26.8633 58.9689 26.3472C58.52 26.2768 58.1183 26.2299 57.7167 26.2299Z" fill="#E0AF57"/>
<path d="M56.1338 39.9782C55.7085 39.9782 55.3069 39.9548 54.8816 39.8844C51.3614 39.2979 50.0857 35.7786 49.3769 32.799C48.6682 29.4206 50.8181 26.1125 54.48 24.8926C57.2442 24.0245 60.8588 24.5876 63.1032 26.2299C64.6153 27.3325 65.3949 28.8341 65.3713 30.5468C65.3477 30.9691 65.3004 31.4383 65.2295 31.9075C64.8515 34.2537 63.5758 36.4825 61.6857 37.984C60.0556 39.2979 58.1183 39.9782 56.1338 39.9782ZM57.2914 24.8456C56.3464 24.8456 55.425 24.9629 54.5745 25.2445C50.6291 26.5583 49.1407 29.9837 49.7313 32.7287C50.4164 35.6144 51.6213 38.9929 54.9289 39.5325C59.5594 40.2128 64.0955 36.6936 64.8515 31.8371C64.9224 31.3679 64.9696 30.9221 64.9933 30.5233C65.0169 28.9279 64.2845 27.5437 62.867 26.5114C61.4258 25.4556 59.3232 24.8456 57.2914 24.8456Z" fill="#E0AF57"/>
<path d="M54.5982 45.0928C54.4328 45.0928 54.2674 45.0694 54.1021 44.999C52.1412 44.3421 50.4165 43.0282 48.999 41.0575C48.7391 40.7056 48.5029 40.3302 48.2666 39.9313C46.731 37.0221 45.1481 33.6202 45.5497 29.796C45.6206 29.3737 45.7387 28.9749 45.8805 28.576C46.542 26.746 47.9359 25.0099 49.7786 23.6726C50.1566 23.391 50.5583 23.133 50.9599 22.8984C52.6373 21.9364 54.551 21.4203 56.4882 21.4203C56.9844 21.4203 57.4805 21.4437 57.9766 21.5141C58.2365 21.5611 58.4964 21.608 58.7563 21.6784C61.8276 22.2649 64.9934 22.8749 67.7339 24.7518C68.6789 25.3618 69.2695 26.3003 69.4349 27.4029C69.6239 28.6933 69.2459 30.0775 68.3954 31.1333C68.3009 31.4148 68.2064 31.7198 68.1119 32.0014V32.0248C67.7811 32.7991 67.5213 33.6437 67.285 34.4648C66.7652 36.2244 66.2219 38.0544 64.828 39.3683C64.5917 39.6498 64.3318 39.9079 64.072 40.166C62.9852 41.1983 61.7331 41.9959 60.3392 42.5121C59.9375 42.6529 59.5123 42.7936 59.1106 42.8875H59.087C58.2129 42.9344 57.4569 43.5209 56.7009 44.084C55.9685 44.6002 55.307 45.0928 54.5982 45.0928ZM56.4646 21.7722C54.5746 21.7722 52.7318 22.2649 51.1253 23.2034C50.7473 23.4145 50.3693 23.6726 49.9913 23.9541C48.2194 25.2445 46.8727 26.9337 46.2348 28.6933C46.0931 29.0687 45.975 29.4675 45.9041 29.8429C45.5024 33.5498 47.0853 36.8814 48.5737 39.7436C48.81 40.119 49.0463 40.4944 49.2825 40.8229C50.6764 42.7232 52.3302 44.0136 54.2202 44.6471C54.9053 44.9052 55.6377 44.3655 56.4646 43.7555C57.2206 43.1925 58.0711 42.559 59.0398 42.4886C59.4414 42.3948 59.843 42.2775 60.221 42.1132C61.5677 41.5971 62.7726 40.8463 63.8357 39.8375C64.0956 39.6029 64.3318 39.3448 64.5681 39.0633L64.5917 39.0398C65.9147 37.7963 66.4345 36.0837 66.9543 34.3006C67.1905 33.4794 67.4504 32.6114 67.7811 31.8137C67.8756 31.5087 67.9701 31.2272 68.0646 30.9222V30.8987L68.0883 30.8752C68.8679 29.9133 69.2459 28.576 69.0569 27.4029C68.8915 26.3941 68.3718 25.573 67.5213 25.0099C64.828 23.1799 61.7094 22.5699 58.6854 21.9834C58.4255 21.9364 58.1656 21.8895 57.9058 21.8426C57.4332 21.8191 56.9607 21.7722 56.4646 21.7722Z" fill="#E0AF57"/>
<path d="M55.4724 53.1401C52.7791 53.1401 50.4165 50.137 48.432 47.6267C47.865 46.9228 47.3452 46.2424 46.8491 45.6794C43.3998 42.0663 41.0845 37.5852 40.3049 33.0571C40.1868 32.7756 40.0214 32.4471 39.8324 32.0952C39.6198 31.7198 39.4071 31.3444 39.1945 30.9925C38.4621 29.7725 37.777 28.5994 37.777 27.4029C37.8951 24.3764 40.8955 22.8749 43.8014 21.4437C45.4552 20.6226 47.1799 19.7545 48.4084 18.6049L48.432 18.5814C48.8336 18.3468 49.2353 18.1357 49.6369 17.948C50.7945 17.4318 52.0231 17.033 53.6059 16.6811C54.0785 16.5872 54.551 16.5403 55.0235 16.4934C55.8031 16.423 56.6064 16.3995 57.386 16.4464C57.6931 16.4699 58.0003 16.4934 58.2838 16.5168C60.2683 16.5637 61.9929 17.338 63.8121 18.1826C65.1351 18.7926 66.529 19.4026 68.0174 19.731C69.1042 19.9187 70.2146 20.083 71.3486 20.2003C71.892 20.2706 72.3172 20.341 72.6952 20.4114C74.6561 20.7868 76.7115 21.4672 77.0187 23.7195C77.2313 25.2445 76.1681 26.5583 75.0578 27.9425C74.2072 28.9983 73.3331 30.0775 72.9315 31.321C72.837 31.579 72.7661 31.8606 72.6716 32.1656V32.189C72.4353 32.6817 72.3881 33.1744 72.3408 33.6906C72.2936 34.1129 72.2463 34.5821 72.081 35.0513C71.9865 35.4971 71.8683 35.9429 71.7502 36.3652C70.8524 39.3213 69.1514 42.0898 66.7889 44.3421C66.4345 44.6471 66.0801 44.9286 65.7021 45.1867C64.7099 45.867 63.6703 46.4536 62.5599 46.8993C62.2056 47.0401 61.8276 47.2043 61.4968 47.3686C60.4809 47.9786 59.9375 49.0578 59.4178 50.0666C58.9216 51.052 58.4491 51.967 57.5986 52.4362C56.8426 52.9524 56.1575 53.1401 55.4724 53.1401ZM48.6446 18.9333C47.3925 20.1064 45.6442 20.9745 43.9668 21.8191C41.0373 23.2737 38.2495 24.6579 38.155 27.4733C38.155 28.5525 38.8165 29.6787 39.5253 30.8517C39.7379 31.2037 39.9505 31.579 40.1631 31.9544C40.3521 32.3298 40.5175 32.6583 40.6593 32.9633L40.6829 33.0102C41.4389 37.4679 43.7306 41.8786 47.1562 45.4682C47.676 46.0547 48.1957 46.7117 48.7628 47.439C51.267 50.6297 54.1021 54.2193 57.4333 52.2251C58.1893 51.8028 58.6381 50.9347 59.087 50.0197C59.6304 48.9405 60.1974 47.8378 61.3078 47.1574C61.6622 46.9697 62.0402 46.8055 62.3946 46.6647C63.4813 46.219 64.5209 45.6559 65.4659 44.9755C65.8202 44.7174 66.1746 44.4594 66.529 44.1778C68.8443 41.949 70.5217 39.2509 71.3958 36.3652C71.5376 35.9429 71.6321 35.4971 71.7266 35.0513V35.0279C71.8683 34.5821 71.9156 34.1598 71.9628 33.7375C72.0101 33.2213 72.081 32.6817 72.3172 32.1421C72.4117 31.8371 72.4826 31.5556 72.5771 31.2975C73.0023 29.9837 73.9001 28.881 74.7506 27.8018C75.8138 26.4645 76.8296 25.221 76.6406 23.8602C76.428 22.2649 75.2231 21.3499 72.6243 20.8572C72.2463 20.7868 71.8447 20.7164 71.3013 20.646C70.1673 20.5522 69.0333 20.3645 67.9465 20.1768C66.4109 19.8483 65.017 19.2149 63.6703 18.6049C61.8748 17.7837 60.1738 17.033 58.2601 16.9861C57.953 16.9626 57.6459 16.9157 57.3624 16.9157C56.6064 16.8687 55.8031 16.8922 55.0471 16.9626C54.5746 17.0095 54.1257 17.0564 53.6768 17.1503C52.1176 17.5022 50.9363 17.8776 49.8023 18.3937C49.4006 18.511 49.0226 18.7222 48.6446 18.9333Z" fill="#E0AF57"/>
<path d="M57.5277 56.3543C53.9839 56.3543 50.4638 53.0697 47.298 50.0901C46.3057 49.1517 45.3843 48.2836 44.4866 47.5328C40.99 44.8348 39.3362 41.1279 38.0605 37.8433C37.9187 37.3975 37.8006 36.9517 37.6825 36.4825C37.588 36.0367 37.4935 35.5675 37.4226 35.1217C37.399 35.0044 37.399 34.8871 37.3753 34.7698C37.3281 34.4414 37.2808 34.0894 37.21 33.761C36.6902 31.9779 35.3908 30.8752 33.9969 29.7256C33.0283 28.9279 32.0596 28.1068 31.3509 27.0275C30.9729 26.4879 30.8311 25.9718 30.9729 25.4791C31.3036 24.3295 32.981 23.6256 33.9969 23.2033L34.2095 23.1095C38.6275 21.2326 41.9114 19.3557 44.8882 17.0565C45.2426 16.7984 45.5969 16.5403 45.9513 16.3057C50.8418 13.068 57.1261 11.8715 62.3473 13.2088C64.1192 13.7249 65.6076 14.7572 67.0487 15.7661C68.6316 16.8688 70.2854 17.9949 72.27 18.4172C72.6243 18.5111 72.9551 18.5814 73.3095 18.6753L73.6402 18.7457C76.3571 19.3791 79.7356 20.1768 80.2081 23.4145C80.4207 24.8456 79.3339 26.0422 78.1999 27.2856C77.2076 28.3649 76.1918 29.491 75.9319 30.8518C75.861 31.2975 75.7901 31.7433 75.7665 32.3064V32.3533L75.6956 32.5644C75.5775 32.9398 75.483 33.3152 75.3649 33.6906C73.5693 39.9079 71.3486 46.219 65.9384 49.1282C65.2769 49.4801 64.5681 49.8086 63.883 50.0901L63.4813 50.2543C62.3709 50.9113 61.9693 52.1078 61.544 53.2574C61.166 54.3132 60.8353 55.2985 59.9848 55.7443C59.1579 56.1901 58.331 56.3543 57.5277 56.3543ZM57.8821 12.9976C53.8658 12.9976 49.6369 14.2411 46.1403 16.5638C45.7859 16.7984 45.4316 17.0565 45.1008 17.3145C42.1004 19.6372 38.7692 21.5141 34.3277 23.4145L34.115 23.5083C33.17 23.9072 31.5871 24.5641 31.3036 25.5495C31.1855 25.9483 31.3036 26.3472 31.6344 26.7929C32.3195 27.8252 33.2881 28.6464 34.2095 29.4206C35.5798 30.5702 36.9973 31.7433 37.5407 33.6437C37.6116 33.9956 37.6588 34.3475 37.7061 34.6994C37.7297 34.8167 37.7297 34.934 37.7533 35.0513C37.8242 35.4971 37.8951 35.9429 38.0132 36.3887C38.1077 36.8344 38.2258 37.2802 38.3676 37.7025C39.6197 40.9167 41.2499 44.5767 44.6756 47.2278C45.5969 47.9786 46.5183 48.8701 47.5106 49.8086C51.3143 53.3747 55.6377 57.4335 59.7721 55.4628C60.4809 55.0639 60.8117 54.1489 61.1424 53.1636C61.544 51.9905 62.0166 50.6766 63.2451 49.9493H63.2687L63.6703 49.7617C64.3555 49.4567 65.0642 49.1517 65.7021 48.7997C70.9942 45.9374 73.1677 39.7202 74.9632 33.5733C75.0814 33.1979 75.1759 32.8225 75.294 32.4471L75.3412 32.2594C75.3649 31.6964 75.4357 31.2271 75.5066 30.7579C75.7901 29.3033 76.8296 28.1302 77.8692 27.0041C78.9559 25.8076 79.9718 24.6814 79.7828 23.4145C79.3812 20.6226 76.806 19.8249 73.4985 19.0507L73.1677 18.9803C72.837 18.9099 72.4826 18.8161 72.1282 18.7222C70.0728 18.2764 68.3954 17.1268 66.7653 16.0007C65.3477 15.0153 63.883 14.0065 62.1819 13.5138C60.8353 13.1853 59.3705 12.9976 57.8821 12.9976Z" fill="#E0AF57"/>
<path d="M59.7485 58.4424C59.5831 58.4424 59.4177 58.4189 59.276 58.372C55.7322 56.8235 50.5346 54.4305 46.1403 51.1928C41.5806 47.8378 38.5329 44.1778 36.8083 39.9782C36.6902 39.6263 36.5957 39.2509 36.5248 38.899C36.4539 38.5471 36.383 38.1717 36.3122 37.8198C36.194 37.3271 36.0759 36.9048 36.005 36.506C35.9105 36.0602 35.8396 35.591 35.7688 35.1452C35.7451 35.0279 35.7451 34.9106 35.7215 34.7933C35.6743 34.4648 35.627 34.1129 35.5798 33.7844C34.9183 31.6729 33.2409 30.3591 31.4453 28.9748C30.8075 28.4822 30.1459 27.966 29.5553 27.4264C28.9647 26.8399 28.6812 26.0891 28.7757 25.4087C28.8465 24.8222 29.2009 24.3529 29.7679 24.0245C31.4926 22.9687 33.2645 22.1241 35.0128 21.3264C37.8005 20.036 40.423 18.8395 42.6674 16.728L42.8327 16.5872C43.1162 16.3526 43.3997 16.118 43.6833 15.8834C45.526 13.1853 48.3138 12.8099 50.9835 12.458C52.7554 12.2234 54.6218 11.9653 56.1338 11.0269C60.3155 8.44611 63.8829 11.3553 67.0487 13.9361C68.0646 14.7572 69.0096 15.5315 69.9782 16.1415C70.9705 16.7984 71.821 17.1503 72.7897 17.5726L73.1204 17.7134C73.5457 17.8776 73.9473 18.0418 74.3017 18.1826C74.5379 18.2764 74.7978 18.3703 75.0341 18.4641C76.7587 19.0976 78.5542 19.7545 80.2553 20.7164H80.2789C80.8695 21.1387 81.8854 22.0068 82.0272 23.1095C82.098 23.7195 81.8854 24.2826 81.4129 24.8222L81.0349 25.1976C79.3339 26.8633 77.5856 28.5995 77.4202 30.8752C77.3966 31.1802 77.3966 31.5087 77.3966 31.8137C77.3966 31.9779 77.3966 32.1187 77.3966 32.2829V32.3298C76.4043 35.1921 75.4829 37.5617 74.3726 39.9782C74.1836 40.4005 74.0182 40.7994 73.8292 41.2217C73.2149 42.6763 72.766 43.8963 72.4353 45.0459C71.632 47.2513 69.8365 49.0813 67.0723 50.4655C66.6943 50.6532 66.2691 50.8409 65.8438 51.0286C63.1978 52.0843 62.0874 54.8058 61.1896 57.4804V57.5039C60.8352 58.1843 60.2682 58.4424 59.7485 58.4424ZM59.4413 10.3699C58.4255 10.3699 57.3859 10.6515 56.2992 11.3319C54.6927 12.3172 52.8263 12.5753 51.0071 12.8099C48.2666 13.1619 45.6914 13.5138 43.9431 16.0945L43.9195 16.1415C43.636 16.3761 43.3525 16.6341 43.0454 16.8688L42.9036 16.9861C40.612 19.1211 37.9659 20.341 35.1545 21.6549C33.4299 22.4526 31.658 23.2737 29.9569 24.3295C29.4844 24.611 29.2009 24.9864 29.1301 25.4556C29.0592 26.0187 29.2954 26.6522 29.7916 27.1449C30.3586 27.661 31.0201 28.1772 31.658 28.6698C33.4062 30.0306 35.2254 31.4383 35.9105 33.6671V33.6906C35.9814 34.0425 36.0286 34.3944 36.0759 34.7463C36.0995 34.8637 36.0995 34.981 36.1231 35.0983C36.194 35.544 36.2649 35.9898 36.3594 36.4356C36.4303 36.8344 36.5484 37.2567 36.6665 37.7494C36.7138 38.1248 36.7847 38.4767 36.8792 38.8286C36.95 39.1806 37.0445 39.509 37.1627 39.8609C40.9427 49.0578 51.0544 54.407 59.4413 58.067C59.8902 58.2078 60.5281 58.0904 60.8589 57.4335C61.7803 54.6651 62.9379 51.8732 65.7257 50.7705C66.1273 50.6063 66.5526 50.4186 66.9306 50.2074C69.6002 48.8466 71.3249 47.1105 72.1045 44.999C72.4353 43.8494 72.8842 42.6294 73.4984 41.1513C73.6638 40.729 73.8528 40.3067 74.0418 39.9079C75.1522 37.4913 76.0736 35.1452 77.0658 32.3064C77.0658 32.1656 77.0658 32.0014 77.0658 31.8606C77.0658 31.5556 77.0658 31.2271 77.0895 30.8987C77.2548 28.4822 79.0504 26.6991 80.7986 24.9864L81.1767 24.611C81.5783 24.1653 81.7437 23.6726 81.6964 23.1799C81.5783 22.218 80.6569 21.4437 80.1135 21.0449C78.4361 20.083 76.6642 19.4495 74.9396 18.8161C74.6797 18.7222 74.4434 18.6284 74.1836 18.5345C73.8292 18.3937 73.4039 18.253 72.9787 18.0653L72.6479 17.9245C71.6556 17.5022 70.7815 17.1268 69.7892 16.4699C68.8206 15.8599 67.852 15.0622 66.8361 14.2411C64.4499 12.3172 62.0874 10.3699 59.4413 10.3699Z" fill="#E0AF57"/>
<path d="M62.4417 63.1816C61.9692 63.1816 61.4495 63.0408 60.9061 62.7593C56.1101 60.1081 51.3614 57.9027 45.9749 55.8147C45.5732 55.627 45.1716 55.4393 44.77 55.2516C43.6123 54.6651 42.4783 53.9847 41.4152 53.2339C41.0372 52.9524 40.6592 52.6709 40.2812 52.3893L40.2575 52.3659C38.9345 51.052 37.328 50.6766 35.6033 50.3013C34.2331 49.9963 32.8392 49.6913 31.587 48.8466L31.5634 48.8232C31.1618 48.4243 30.7838 47.8378 30.7838 47.4155C30.831 46.4067 30.9491 45.3978 31.0673 44.4124C31.3508 41.9021 31.6343 39.2979 30.9964 36.8109C30.9019 36.3183 30.831 35.8256 30.7838 35.3329L30.7601 35.0279C30.7129 34.6525 30.6656 34.2537 30.5948 33.8548C30.1695 31.8606 28.752 30.5702 27.2163 29.186C26.2004 28.2475 25.1373 27.3091 24.3813 26.0891C24.1687 25.6668 24.145 25.0333 24.5939 24.5875C26.2477 23.0156 28.2322 21.8895 30.1223 20.7868C32.532 19.4026 34.8237 18.0887 36.5247 15.9537C36.7846 15.6253 37.0681 15.3203 37.3516 15.0153C37.6351 14.7103 37.9186 14.4053 38.2021 14.1238C38.5329 13.7953 38.8873 13.4668 39.2416 13.1618L39.218 13.1384C40.3048 12.4815 40.6355 11.238 40.9663 10.0415C41.3207 8.7511 41.6514 7.55457 42.8563 7.15572C45.5023 6.21726 48.2193 6.05304 51.1016 5.86534C53.2278 5.72458 55.425 5.60727 57.6222 5.13804C63.6466 3.8242 68.2063 8.04725 72.6479 12.153C73.8764 13.2791 75.034 14.3584 76.2153 15.3203C76.5461 15.5314 76.9241 15.7661 77.3493 16.0241C77.9872 16.3995 78.696 16.7514 79.3575 17.1034C82.4051 18.6987 85.5473 20.3176 85.6654 23.8133C85.6654 25.0802 84.8149 26.0891 84.0117 27.0745C83.3029 27.9191 82.5705 28.7871 82.3579 29.8194C82.287 30.1479 82.287 30.4764 82.3106 30.8048C82.3815 31.2975 82.4524 31.7902 82.5469 32.2829C82.9249 33.7844 82.6414 35.3094 81.7673 36.5529C81.1294 37.3036 80.3261 37.9606 79.5701 38.5705C78.0108 39.8375 76.5224 41.034 76.2862 43.0282C76.3334 43.3098 76.357 43.5678 76.3807 43.8024C76.8532 48.0959 74.7033 51.7793 70.2145 54.4305C69.8128 54.6651 69.4112 54.8997 68.9859 55.1108L68.7497 55.2281C67.3558 55.932 65.9146 56.6358 65.5839 58.2781C65.1823 60.9058 64.4499 62.4777 63.3631 63.0173C63.0796 63.1112 62.7725 63.1816 62.4417 63.1816ZM40.5174 52.0843C40.8718 52.3659 41.2498 52.6474 41.6278 52.9289C42.6673 53.6797 43.7777 54.3366 44.9353 54.9232C45.3133 55.1108 45.715 55.2985 46.1166 55.4862C51.5268 57.5743 56.2755 59.7797 61.0951 62.4543C61.922 62.8766 62.6307 62.947 63.2214 62.6654C64.19 62.1727 64.8751 60.7181 65.2531 58.1843C65.6311 56.3543 67.214 55.5566 68.6316 54.8762L68.8678 54.7589C69.2931 54.5478 69.6947 54.3366 70.0727 54.102C75.5774 50.8643 76.357 46.7351 76.0499 43.8259C76.0263 43.5913 76.0027 43.3332 75.9554 43.0517V43.0282V43.0048C76.1917 40.8463 77.8218 39.5559 79.3811 38.289C80.1371 37.679 80.9167 37.0456 81.531 36.3183C82.5705 34.8636 82.4996 33.3621 82.2634 32.3533C82.1689 31.8371 82.098 31.3444 82.0271 30.8517C81.9799 30.4764 82.0035 30.101 82.0744 29.7491C82.3106 28.6229 83.0666 27.7079 83.799 26.8398C84.6023 25.8779 85.3819 24.9629 85.3819 23.8368C85.2638 20.5756 82.3579 19.0507 79.263 17.4553C78.6015 17.1034 77.8927 16.7514 77.2548 16.3761C76.8059 16.118 76.4279 15.8834 76.0735 15.6488C74.8686 14.6634 73.6401 13.5372 72.4589 12.458C68.0409 8.37571 63.5521 4.22305 57.7167 5.48996C55.4722 5.95919 53.2751 6.09996 51.1252 6.24073C48.2901 6.40496 45.5969 6.56919 42.9981 7.48418C41.9822 7.81264 41.675 8.89187 41.3443 10.1353C41.0135 11.3319 40.6355 12.6926 39.4306 13.4199C39.0999 13.7249 38.7455 14.0299 38.4384 14.3584C38.1549 14.6399 37.8714 14.9449 37.5879 15.2499C37.3044 15.5549 37.0445 15.8599 36.7846 16.1649C35.0363 18.3468 32.6265 19.731 30.2876 21.0918C28.3976 22.171 26.4603 23.2972 24.8302 24.8222C24.5231 25.1272 24.5231 25.5729 24.6884 25.8779C25.3972 27.0275 26.4603 27.966 27.4526 28.881C28.9646 30.2417 30.5003 31.6494 30.9491 33.7375C31.02 34.1363 31.0673 34.5352 31.1145 34.934L31.1381 35.239C31.1854 35.7083 31.2563 36.2009 31.3508 36.6936C32.0123 39.2509 31.7052 41.8786 31.4216 44.4124C31.3035 45.3978 31.209 46.4067 31.1381 47.392C31.1381 47.6501 31.4217 48.1428 31.7997 48.5182C33.0045 49.3159 34.3512 49.6209 35.6742 49.9024C37.3752 50.3013 39.1235 50.7001 40.5174 52.0843Z" fill="#E0AF57"/>
<path d="M65.206 67.4046C64.5445 67.4046 63.8594 67.17 63.316 66.9589C59.1343 64.8708 55.307 63.1112 50.9599 62.4543C50.511 62.3839 50.0622 62.29 49.6133 62.1962C44.8882 61.1404 40.423 58.935 36.6902 55.8381C36.3831 55.5801 36.0051 55.2751 35.6034 54.9935C33.6662 54.0082 31.6344 54.1489 29.4609 54.3132C28.2323 54.407 26.9802 54.4774 25.7517 54.3601H25.7281C24.4995 54.0551 23.9562 53.492 24.1215 52.6943C24.2633 50.8643 24.8539 49.1047 25.4209 47.4155C26.2951 44.7644 27.1456 42.2775 26.4368 39.5325C26.3187 39.0398 26.2242 38.5705 26.1297 38.1248C25.9407 37.1863 25.7989 36.2244 25.7044 35.2625C25.6808 35.0748 25.6808 34.8871 25.6572 34.6994C25.6336 34.3944 25.6099 34.1129 25.5627 33.8079C25.4682 31.9544 24.2397 30.711 22.9639 29.3971C21.948 28.3648 20.9085 27.2856 20.4124 25.8779V25.8545V25.8075C20.4124 25.1741 20.625 24.5876 21.0266 24.2122C22.2551 22.9218 23.6726 21.913 25.0429 20.9276C27.0511 19.473 28.9647 18.1122 30.3114 15.9538C30.5476 15.6018 30.7839 15.2265 31.0201 14.8745C31.2564 14.5461 31.5163 14.1707 31.8234 13.7718C32.2486 12.8334 33.0047 12.1061 33.737 11.4022C34.7057 10.4872 35.6271 9.59572 35.5089 8.42265C35.5089 7.92996 35.4381 7.43727 35.3672 6.96804C35.1546 5.48997 34.9656 4.10575 36.8792 2.93268C39.8324 1.24346 42.88 1.52499 45.8096 1.80653C47.6996 1.99422 49.6369 2.15845 51.5033 1.80653C59.9375 0.375384 68.3245 2.53383 75.105 7.85957C75.483 8.14111 75.8374 8.42265 76.1918 8.72764C77.2549 9.61918 78.2708 10.5811 79.2158 11.5899C79.5229 11.9184 79.8301 12.2703 80.1136 12.6222C85.7128 17.033 91.0049 22.4995 88.0044 29.491C87.9099 29.7256 87.7918 29.9368 87.6737 30.1948L87.6501 30.2418C87.2721 30.6406 87.1539 30.9221 87.5083 31.4617L87.5319 31.5087C87.6028 31.7433 87.6973 32.0014 87.7918 32.236C88.1462 32.9867 88.8077 33.7844 89.422 34.5352C90.8159 36.2479 92.257 38.0075 90.7686 39.6263C89.5401 40.9167 87.6973 41.6205 85.9018 42.3244C83.2794 43.3332 80.5861 44.3655 79.6883 47.2043V47.2278C79.5229 47.5797 79.3576 47.9317 79.1922 48.2836C77.3258 52.2251 75.0341 55.3924 72.3881 57.7385C72.0337 58.0435 71.6793 58.3485 71.325 58.6301C69.9311 59.6154 69.3877 61.1639 68.8207 62.8062C68.3009 64.2608 67.7812 65.7623 66.6235 66.9119L66.5999 66.9354C66.1983 67.2873 65.7021 67.4046 65.206 67.4046ZM31.7525 53.8439C33.1228 53.8439 34.5167 54.0082 35.8161 54.6885L35.8397 54.712C36.2413 54.9935 36.6193 55.322 36.9501 55.5801C40.6356 58.6301 45.0536 60.812 49.7314 61.8677C50.1567 61.9616 50.6055 62.0554 51.0544 62.1258C55.4487 62.7827 59.276 64.5658 63.4813 66.6539C64.3082 66.9823 65.5368 67.3577 66.4109 66.6773C67.4977 65.5981 68.0174 64.1435 68.5135 62.7123C69.0806 61.0935 69.6712 59.4043 71.1596 58.3485C71.514 58.0904 71.8683 57.7854 72.1991 57.4804C74.7979 55.1812 77.0659 52.0374 78.9087 48.1428C79.0741 47.7909 79.2394 47.439 79.3812 47.1105C80.3262 44.1074 83.114 43.0517 85.8309 41.9959C87.6737 41.2921 89.3983 40.6117 90.556 39.3917C91.8317 38.0075 90.556 36.4356 89.1857 34.7933C88.5478 34.019 87.8863 33.1979 87.5083 32.4002C87.4138 32.1421 87.3193 31.9075 87.2484 31.6494C86.7996 30.9456 87.0122 30.4998 87.4374 30.0306C87.5556 29.796 87.6501 29.5848 87.7446 29.3737C90.6505 22.6168 85.4293 17.2676 79.9482 12.9272L79.9246 12.9038C79.6175 12.5519 79.3103 12.1999 79.0268 11.8715C78.1054 10.8626 77.0895 9.90071 76.05 9.03264C75.6956 8.7511 75.3413 8.44611 74.9633 8.18803C68.2537 2.90922 59.9848 0.797689 51.6451 2.20537C49.7314 2.58076 47.7469 2.39306 45.8568 2.20537C42.9746 1.92384 39.9978 1.6423 37.1627 3.2846C35.4617 4.3169 35.6271 5.53689 35.8397 6.94458C35.9106 7.41381 35.9815 7.9065 35.9815 8.42265C36.0996 9.75995 35.1309 10.6984 34.0914 11.6838C33.3827 12.3642 32.6503 13.068 32.2486 13.9361L32.225 13.983C31.9179 14.3818 31.658 14.7572 31.4218 15.0857C31.1855 15.4376 30.9493 15.7895 30.713 16.1414C29.3191 18.3468 27.2873 19.8014 25.35 21.2091C23.9798 22.1945 22.5623 23.2033 21.381 24.4702C21.0739 24.7752 20.8849 25.2679 20.8849 25.7841C21.3574 27.0979 22.3733 28.1302 23.3419 29.1391C24.6177 30.4529 25.9407 31.8137 26.0352 33.7844C26.0588 34.066 26.0824 34.371 26.1297 34.676C26.1533 34.8636 26.1533 35.0513 26.1769 35.239C26.2714 36.2009 26.4132 37.1394 26.5786 38.0779C26.6731 38.5236 26.7676 38.9929 26.8857 39.4621C27.6181 42.3009 26.7203 44.9521 25.8462 47.5328C25.2792 49.222 24.7122 50.9347 24.5468 52.7412V52.7647C24.4287 53.3512 24.8539 53.7501 25.8698 54.0082C27.0511 54.1489 28.3032 54.0551 29.5081 53.9612C30.2169 53.8908 30.9729 53.8439 31.7525 53.8439Z" fill="#E0AF57"/>
<path d="M66.4817 69C66.4345 69 66.3636 69 66.3163 69C64.1664 69 62.1819 67.9442 60.1029 66.8416C58.0475 65.7623 55.9448 64.6362 53.535 64.4719C53.0389 64.425 52.5664 64.3781 52.0939 64.3077C46.0458 63.4866 40.3521 60.9997 35.6506 57.1051C35.5325 57.0112 35.4144 56.8939 35.2963 56.8001C35.06 56.5889 34.8001 56.3778 34.5403 56.1901C32.7211 55.1343 30.7602 55.2516 28.6812 55.3689C26.9093 55.4862 25.0665 55.5801 23.3418 54.8997L23.3182 54.8762C22.7276 54.4774 22.4677 53.6797 22.6803 52.8586C22.9638 51.6386 23.4127 50.4186 23.8144 49.222C24.6885 46.7117 25.6099 44.084 25.2319 41.3625C25.161 41.0575 25.0901 40.7525 25.0192 40.4475C24.972 40.2598 24.9247 40.0721 24.8775 39.9079C24.5231 38.4298 24.2632 36.9283 24.1215 35.4033C24.0979 35.1452 24.0742 34.8871 24.0506 34.629C24.1451 31.5556 22.0188 29.6318 19.798 27.5906C19.3255 27.1214 19.1129 26.5349 19.1365 25.8545C19.1838 24.9864 19.6327 24.0714 20.3651 23.4849C21.1919 22.781 22.0661 22.1007 22.893 21.4672C24.9011 19.9187 26.8148 18.4407 28.185 16.4465C28.374 16.0945 28.5867 15.7426 28.8465 15.3438C29.2954 14.6634 29.8152 14.0065 30.3113 13.3495C31.7052 11.543 33.0282 9.83034 33.0282 7.9065C32.9574 6.19382 33.5952 4.64537 34.9183 3.35499C37.1627 1.14962 40.7773 0.281543 43.1871 0.398851C45.9513 0.398851 48.6918 0.305005 51.3615 0.211159C54.0312 0.117314 56.7953 0.023468 59.5595 0.023468C63.3396 0.023468 67.0724 1.525 70.5217 3.1673C70.9705 3.37845 71.3722 3.5896 71.7738 3.80075C75.5066 5.77151 78.7669 8.39919 81.4838 11.6369C81.7909 11.9888 82.0981 12.3876 82.3816 12.763C86.5869 16.1649 91.312 21.6783 89.8708 28.8106C89.7763 29.2798 89.6582 29.7491 89.5164 30.1948C89.4219 30.5702 89.2802 31.0394 89.1857 31.5556C89.2565 31.7902 89.3274 32.0248 89.4456 32.2829C89.8236 33.1744 90.6504 34.1598 91.4537 35.1217C93.1311 37.1394 95.0211 39.4152 93.013 41.1513C91.5246 42.4652 89.5873 43.1925 87.7209 43.9198C85.3347 44.8348 82.8777 45.7732 81.2476 47.9082C81.0113 48.1897 80.7514 48.4947 80.4916 48.8232C79.4757 50.1136 78.507 51.5682 77.562 52.9759C76.05 55.2516 74.4671 57.5978 72.5771 59.4747L72.3881 59.6624C72.1518 59.897 71.9156 60.1316 71.6793 60.3897C70.6162 61.4454 70.1437 63.1112 69.7184 64.7535C69.0805 66.9119 68.5135 69 66.4817 69ZM30.5948 54.9232C32.0123 54.9232 33.4062 55.1109 34.7293 55.8851L34.7529 55.9085C35.0128 56.1197 35.2726 56.3308 35.5325 56.542C35.6506 56.6358 35.7688 56.7532 35.8869 56.847C40.5411 60.6947 46.1639 63.1581 52.1411 63.9793C52.6136 64.0497 53.0862 64.0966 53.5587 64.1435C56.0157 64.3077 58.1892 65.4339 60.2683 66.5366C62.3237 67.6158 64.2609 68.6481 66.34 68.6481C68.23 68.7419 68.7261 66.8416 69.3404 64.6362C69.7893 62.9704 70.2618 61.2343 71.3958 60.1316C71.632 59.8735 71.8683 59.6389 72.1046 59.4043L72.2936 59.2166C74.1836 57.3631 75.7429 55.0405 77.2313 52.7647C78.1763 51.357 79.1449 49.9024 80.1844 48.5886C80.4443 48.2601 80.7042 47.9551 80.9404 47.6736C82.6178 45.4917 85.1221 44.5298 87.5555 43.5913C89.4928 42.8405 91.312 42.1602 92.7295 40.8932C94.4541 39.3917 92.8476 37.4444 91.123 35.3798C90.3197 34.3944 89.4692 33.3856 89.0675 32.4471C88.9494 32.1656 88.8549 31.8841 88.784 31.626V31.5791V31.5321C88.9022 30.9925 89.0203 30.4998 89.1384 30.101C89.2802 29.6552 89.3983 29.186 89.4928 28.7402C90.8867 21.7957 86.2561 16.3526 82.0981 13.0445L82.0744 13.0211C81.7673 12.6457 81.4838 12.2469 81.1767 11.8949C78.4834 8.70419 75.2704 6.09997 71.5848 4.15268C71.1832 3.94152 70.7815 3.73037 70.3327 3.51922C66.907 1.90038 63.2214 0.422312 59.5122 0.422312C56.7481 0.422312 53.9839 0.516158 51.3143 0.610003C48.6446 0.703849 45.8804 0.797695 43.1163 0.797695C40.7773 0.680387 37.2808 1.525 35.1309 3.65999C33.9024 4.87998 33.2881 6.31113 33.359 7.92996C33.359 9.99457 31.9415 11.8246 30.5712 13.6076C30.0751 14.2411 29.5553 14.9215 29.1301 15.5784C28.8702 15.9538 28.6575 16.3057 28.4922 16.6576V16.6811C27.0983 18.7222 25.161 20.2237 23.1292 21.7957C22.3023 22.4291 21.4282 23.1095 20.6013 23.8133C19.9634 24.3295 19.5382 25.1506 19.5145 25.9249C19.4909 26.5114 19.6799 27.0041 20.0579 27.3795C22.2551 29.3737 24.5231 31.4618 24.4286 34.676C24.4522 34.934 24.4759 35.1687 24.4995 35.4267C24.6412 36.9283 24.9011 38.4298 25.2555 39.8844C25.3027 40.0721 25.35 40.2363 25.3973 40.424C25.4681 40.729 25.5626 41.034 25.6335 41.3625C26.0351 44.1778 25.1137 46.829 24.216 49.4097C23.8144 50.5828 23.3891 51.8028 23.082 52.9993C22.9166 53.6797 23.082 54.3132 23.5308 54.6182C25.1846 55.2751 26.9801 55.1578 28.7048 55.0639C29.2954 54.9701 29.9569 54.9232 30.5948 54.9232Z" fill="#E0AF57"/>
<path d="M10.0408 25.7841H3.30755V29.7491H9.85177V32.8929H3.30755V39.3448H0V22.6403H10.0408V25.7841Z" fill="white"/>
<path d="M11.9545 24.0949C11.9545 23.0626 12.8286 22.1945 13.8445 22.1945C14.9076 22.1945 15.7581 23.086 15.7581 24.0949C15.7581 25.1272 14.884 25.9718 13.8445 25.9718C12.8286 25.9718 11.9545 25.1272 11.9545 24.0949ZM12.3325 39.3448V27.4264H15.4274V39.3448H12.3325Z" fill="white"/>
<path d="M25.1373 30.3591H22.4204V35.3329C22.4204 36.6232 23.3654 36.6467 25.1373 36.5529V39.3448C20.8848 39.814 19.3255 38.594 19.3255 35.3329V30.3591H17.2465V27.4029H19.3255V24.9864L22.4204 24.0479V27.3795H25.1373V30.3591Z" fill="white"/>
<path d="M32.6739 39.6732C30.902 39.6732 29.39 39.0867 28.1614 37.8667C26.9329 36.6467 26.3423 35.1452 26.3423 33.3856C26.3423 31.626 26.9329 30.1479 28.1614 28.9279C29.39 27.7079 30.902 27.0979 32.6739 27.0979C34.4458 27.0979 35.9578 27.7079 37.1863 28.9279C38.4148 30.1479 39.0291 31.626 39.0291 33.3856C39.0291 35.1452 38.4148 36.6467 37.1863 37.8667C35.9578 39.0632 34.4458 39.6732 32.6739 39.6732ZM32.6739 36.6702C33.6189 36.6702 34.3749 36.3652 35.0128 35.7317C35.627 35.1217 35.9578 34.324 35.9578 33.3621C35.9578 32.4002 35.6507 31.626 35.0128 30.9925C34.3985 30.3825 33.6189 30.0541 32.6739 30.0541C31.7289 30.0541 30.9728 30.3591 30.335 30.9925C29.7443 31.6025 29.4136 32.4002 29.4136 33.3621C29.4136 34.324 29.7207 35.0983 30.335 35.7317C30.9728 36.3417 31.7289 36.6702 32.6739 36.6702Z" fill="white"/>
<path d="M50.3456 22.6403H53.4405V39.3448H50.3456V37.9371C49.4242 39.1102 48.1249 39.6732 46.4475 39.6732C44.8409 39.6732 43.447 39.0867 42.2894 37.8667C41.1554 36.6467 40.5884 35.1452 40.5884 33.3856C40.5884 31.626 41.1554 30.1479 42.2894 28.9279C43.447 27.7079 44.8409 27.0979 46.4475 27.0979C48.1249 27.0979 49.4242 27.661 50.3456 28.8341V22.6403ZM47.0145 36.7406C47.9831 36.7406 48.7627 36.4356 49.4006 35.8021C50.0149 35.1687 50.3456 34.3475 50.3456 33.3621C50.3456 32.3767 50.0385 31.5791 49.4006 30.9456C48.7864 30.3121 47.9831 29.9837 47.0145 29.9837C46.0458 29.9837 45.2662 30.2887 44.6047 30.9456C43.9904 31.5556 43.6597 32.3767 43.6597 33.3621C43.6597 34.3475 43.9668 35.1452 44.6047 35.8021C45.2662 36.4356 46.0458 36.7406 47.0145 36.7406Z" fill="white"/>
<path d="M58.8979 34.629C59.2996 36.1306 60.4336 36.8813 62.2764 36.8813C63.4576 36.8813 64.3554 36.4825 64.9696 35.6848L67.4739 37.1159C66.2927 38.8052 64.5444 39.6732 62.2291 39.6732C60.2446 39.6732 58.638 39.0867 57.4568 37.8902C56.2755 36.6936 55.6613 35.1921 55.6613 33.3856C55.6613 31.6025 56.2519 30.101 57.4332 28.9045C58.6144 27.6845 60.1501 27.0979 61.9928 27.0979C63.7411 27.0979 65.2059 27.6845 66.3399 28.9045C67.4976 30.1245 68.0646 31.6025 68.0646 33.3856C68.0646 33.7844 68.0173 34.2067 67.9464 34.6525H58.8979V34.629ZM64.9696 32.2594C64.6153 30.6406 63.4104 29.8429 61.9928 29.8429C60.3391 29.8429 59.2051 30.7344 58.8507 32.2594H64.9696Z" fill="white"/>
<path d="M74.7978 32.0952C76.5461 32.4471 78.8377 33.2917 78.8141 35.849C78.8141 37.069 78.3652 38.0309 77.4202 38.6879C76.4988 39.3213 75.3648 39.6732 73.9945 39.6732C71.5139 39.6732 69.8365 38.7113 68.9387 36.8344L71.632 35.3329C71.9864 36.3652 72.766 36.8813 73.9945 36.8813C75.1049 36.8813 75.6483 36.5529 75.6483 35.849C75.6483 35.2156 74.6797 34.8402 73.4512 34.5352C71.6793 34.0894 69.4349 33.3387 69.4349 30.8517C69.4349 29.6787 69.8601 28.7637 70.7342 28.0833C71.632 27.4029 72.6952 27.051 73.9945 27.051C75.9318 27.051 77.6328 27.966 78.5542 29.5848L75.9082 31.016C75.5302 30.1948 74.8687 29.796 73.9945 29.796C73.1913 29.796 72.6006 30.1714 72.6006 30.7814C72.6006 31.4383 73.5693 31.7902 74.7978 32.0952Z" fill="white"/>
<path d="M80.4443 24.0949C80.4443 23.0626 81.3185 22.1945 82.3344 22.1945C83.3975 22.1945 84.248 23.086 84.248 24.0949C84.248 25.1272 83.3739 25.9718 82.3344 25.9718C81.2948 25.9718 80.4443 25.1272 80.4443 24.0949ZM80.7987 39.3448V27.4264H83.8936V39.3448H80.7987Z" fill="white"/>
<path d="M95.9425 27.4029H98.9666V38.7582C98.9666 40.5882 98.3523 41.9959 97.1238 42.9813C95.8953 43.9667 94.4305 44.4359 92.7058 44.4359C90.1071 44.4359 88.0753 43.4271 87.0121 41.5267L89.6582 40.0252C90.2488 41.1513 91.3119 41.6909 92.8003 41.6909C94.7376 41.6909 95.9425 40.6351 95.9425 38.7582V37.4679C95.0211 38.6879 93.7454 39.2744 92.0916 39.2744C90.3906 39.2744 88.973 38.6879 87.8154 37.5148C86.6814 36.3183 86.1144 34.8636 86.1144 33.1744C86.1144 31.4852 86.6814 30.0541 87.839 28.8575C88.9967 27.661 90.4142 27.0745 92.0916 27.0745C93.7454 27.0745 95.0211 27.661 95.9425 28.881V27.4029ZM94.9739 30.8752C94.3596 30.2652 93.5564 29.9368 92.5641 29.9368C91.5718 29.9368 90.7922 30.2418 90.1307 30.8752C89.5164 31.4617 89.1857 32.2594 89.1857 33.1979C89.1857 35.0983 90.6032 36.459 92.5405 36.459C94.4777 36.459 95.8953 35.0983 95.8953 33.1979C95.9425 32.2594 95.6118 31.4617 94.9739 30.8752Z" fill="white"/>
<path d="M111.701 28.3883C112.575 29.2799 113 30.4529 113 32.0248V39.3448H109.905V32.4002C109.905 30.8048 108.96 29.9368 107.519 29.9368C105.912 29.9368 104.873 30.9222 104.873 32.8929V39.3448H101.778V27.4264H104.873V28.7637C105.629 27.6376 106.81 27.0979 108.464 27.0979C109.763 27.0745 110.85 27.4968 111.701 28.3883Z" fill="white"/>
</svg>
