<svg width="133" height="26" viewBox="0 0 133 26" fill="none" xmlns="http://www.w3.org/2000/svg">
<path d="M11.8278 4.20678H3.91483V8.82399H11.5987V12.5178H3.894V20.0489H0V0.533539H11.8278V4.20678Z" fill="white"/>
<path d="M14.0767 2.23678C14.0767 1.02605 15.097 0 16.3256 0C17.575 0 18.5954 1.02605 18.5954 2.23678C18.5954 3.42699 17.575 4.43252 16.3256 4.43252C15.097 4.43252 14.0767 3.42699 14.0767 2.23678ZM14.514 20.0284V6.09471H18.1581V20.0284H14.514Z" fill="white"/>
<path d="M29.5903 9.56275H26.4043V15.3496C26.4043 16.8477 27.508 16.8887 29.5903 16.7656V20.0284C24.5927 20.5825 22.7394 19.1665 22.7394 15.3496V9.56275H20.2822V6.09471H22.7394V3.28335L26.3835 2.19574V6.09471H29.5695V9.56275H29.5903Z" fill="white"/>
<path d="M38.4612 20.4183C36.3788 20.4183 34.588 19.7206 33.1512 18.3046C31.7143 16.8887 31.0063 15.1239 31.0063 13.0718C31.0063 10.9992 31.7143 9.27544 33.1512 7.8595C34.588 6.44356 36.3788 5.7048 38.4612 5.7048C40.5435 5.7048 42.3344 6.42304 43.7712 7.8595C45.208 9.27544 45.9577 10.9992 45.9577 13.0718C45.9577 15.1239 45.2288 16.8887 43.7712 18.3046C42.3344 19.7411 40.5644 20.4183 38.4612 20.4183ZM38.4612 16.9092C39.5648 16.9092 40.4602 16.5398 41.2099 15.8216C41.9387 15.1034 42.3135 14.1799 42.3135 13.0718C42.3135 11.9637 41.9387 11.0402 41.2099 10.322C40.4811 9.60378 39.5648 9.2344 38.4612 9.2344C37.3575 9.2344 36.4621 9.60378 35.7125 10.322C35.0045 11.0402 34.6296 11.9637 34.6296 13.0718C34.6296 14.1799 35.0045 15.1034 35.7125 15.8216C36.4621 16.5604 37.3575 16.9092 38.4612 16.9092Z" fill="white"/>
<path d="M59.2431 0.533539H62.8872V20.0489H59.2431V18.4073C58.1602 19.7822 56.6401 20.4388 54.6619 20.4388C52.7669 20.4388 51.1219 19.7411 49.7683 18.3252C48.4356 16.9092 47.7693 15.1444 47.7693 13.0923C47.7693 11.0197 48.4565 9.29597 49.7683 7.88003C51.1219 6.46408 52.7669 5.72533 54.6619 5.72533C56.6401 5.72533 58.1602 6.40252 59.2431 7.7569V0.533539ZM55.3491 16.9913C56.4735 16.9913 57.4106 16.6219 58.1394 15.9037C58.8682 15.1444 59.2431 14.2005 59.2431 13.0513C59.2431 11.9021 58.8682 10.9582 58.1394 10.2399C57.4106 9.48066 56.4735 9.1318 55.3491 9.1318C54.2246 9.1318 53.2875 9.50118 52.5171 10.2399C51.7882 10.9582 51.4134 11.9226 51.4134 13.0513C51.4134 14.1799 51.7882 15.1444 52.5171 15.9037C53.2875 16.6425 54.2246 16.9913 55.3491 16.9913Z" fill="white"/>
<path d="M69.3215 14.5493C69.8005 16.3141 71.1332 17.176 73.2988 17.176C74.694 17.176 75.756 16.704 76.464 15.7806L79.4001 17.4428C78.0049 19.4128 75.9434 20.4183 73.2364 20.4183C70.8833 20.4183 69.03 19.7206 67.614 18.3252C66.198 16.9297 65.49 15.1855 65.49 13.0513C65.49 10.9582 66.198 9.21388 67.5932 7.81846C68.9883 6.40251 70.7792 5.7048 72.9656 5.7048C75.0272 5.7048 76.7555 6.40251 78.0882 7.81846C79.4418 9.2344 80.1289 10.9582 80.1289 13.0513C80.1289 13.5233 80.0665 13.9953 79.9832 14.5288H69.3215V14.5493ZM76.464 11.7585C76.0475 9.87055 74.6315 8.94711 72.9656 8.94711C71.0082 8.94711 69.6755 9.97315 69.2591 11.7585H76.464Z" fill="white"/>
<path d="M88.042 11.5943C90.1035 12.0047 92.7898 12.9897 92.7689 15.9653C92.7689 17.3812 92.2275 18.5099 91.1239 19.2896C90.0411 20.0489 88.6875 20.4388 87.0841 20.4388C84.1688 20.4388 82.1906 19.3307 81.1494 17.1144L84.3146 15.3496C84.7311 16.5398 85.6473 17.1555 87.0841 17.1555C88.3752 17.1555 89.0415 16.7656 89.0415 15.9653C89.0415 15.206 87.9171 14.7956 86.4594 14.4262C84.3771 13.8926 81.7325 13.0308 81.7325 10.1373C81.7325 8.76242 82.2322 7.67481 83.2526 6.89502C84.2938 6.0947 85.564 5.7048 87.1049 5.7048C89.3955 5.7048 91.3738 6.77189 92.4774 8.65982L89.3747 10.322C88.9166 9.37805 88.1669 8.90607 87.1049 8.90607C86.1679 8.90607 85.4599 9.35753 85.4599 10.0552C85.4599 10.8145 86.6052 11.2249 88.042 11.5943Z" fill="white"/>
<path d="M94.6847 2.23678C94.6847 1.02605 95.705 0 96.9128 0C98.1622 0 99.1826 1.02605 99.1826 2.23678C99.1826 3.42699 98.1622 4.43252 96.9128 4.43252C95.705 4.43252 94.6847 3.42699 94.6847 2.23678ZM95.1012 20.0284V6.09471H98.7453V20.0284H95.1012Z" fill="white"/>
<path d="M112.926 6.09471H116.487V19.3512C116.487 21.5059 115.758 23.1476 114.301 24.2762C112.864 25.4254 111.135 25.9795 109.095 25.9795C106.034 25.9795 103.639 24.8098 102.389 22.573L105.492 20.8082C106.2 22.1215 107.45 22.7577 109.199 22.7577C111.489 22.7577 112.905 21.5264 112.905 19.3307V17.8327C111.823 19.2486 110.323 19.9463 108.387 19.9463C106.388 19.9463 104.701 19.2486 103.347 17.8942C102.015 16.4988 101.348 14.7956 101.348 12.8256C101.348 10.8556 102.035 9.17285 103.389 7.77743C104.743 6.38201 106.408 5.6843 108.387 5.6843C110.344 5.6843 111.843 6.38201 112.905 7.79795V6.09471H112.926ZM111.802 10.1373C111.073 9.4191 110.136 9.04973 108.97 9.04973C107.804 9.04973 106.887 9.4191 106.117 10.1373C105.388 10.835 105.013 11.7585 105.013 12.8461C105.013 15.0829 106.679 16.663 108.97 16.663C111.26 16.663 112.926 15.0829 112.926 12.8461C112.926 11.7585 112.551 10.835 111.802 10.1373Z" fill="white"/>
<path d="M131.48 7.24387C132.5 8.26992 133 9.66534 133 11.4712V20.0284H129.356V11.9226C129.356 10.0552 128.252 9.04971 126.566 9.04971C124.671 9.04971 123.463 10.1989 123.463 12.4972V20.0284H119.819V6.0947H123.463V7.65429C124.337 6.34095 125.753 5.7048 127.669 5.7048C129.21 5.7048 130.48 6.21783 131.48 7.24387Z" fill="white"/>
</svg>
