<svg width="30" height="30" viewBox="0 0 30 30" fill="none" xmlns="http://www.w3.org/2000/svg">
<path d="M29.6251 16.9296V14.8135H23.2769V25.3939H25.3929V21.1618H28.5671V19.0457H25.3929V16.9296H29.6251Z" fill="#272727"/>
<path d="M17.9867 25.3939H13.7545V14.8135H17.9867C18.8283 14.8143 19.6351 15.149 20.2302 15.7441C20.8253 16.3392 21.16 17.146 21.1608 17.9876V22.2198C21.16 23.0614 20.8253 23.8682 20.2302 24.4633C19.6351 25.0584 18.8283 25.3931 17.9867 25.3939ZM15.8706 23.2778H17.9867C18.2672 23.2776 18.5362 23.166 18.7345 22.9676C18.9329 22.7693 19.0445 22.5003 19.0447 22.2198V17.9876C19.0445 17.7071 18.9329 17.4381 18.7345 17.2398C18.5362 17.0414 18.2672 16.9298 17.9867 16.9296H15.8706V23.2778Z" fill="#272727"/>
<path d="M9.52229 14.8135H4.23206V25.3939H6.34815V22.2198H9.52229C10.0833 22.219 10.621 21.9957 11.0177 21.5991C11.4143 21.2024 11.6375 20.6647 11.6384 20.1037V16.9296C11.6378 16.3685 11.4147 15.8306 11.018 15.4339C10.6212 15.0372 10.0833 14.814 9.52229 14.8135ZM6.34815 20.1037V16.9296H9.52229L9.52335 20.1037H6.34815Z" fill="#272727"/>
<path d="M21.1609 12.6969V8.46473C21.1647 8.32568 21.1382 8.18747 21.0834 8.05961C21.0286 7.93176 20.9468 7.81729 20.8435 7.7241L13.4372 0.317774C13.344 0.21445 13.2296 0.132563 13.1017 0.0777633C12.9739 0.0229636 12.8356 -0.00344482 12.6966 0.000359778H2.11609C1.55538 0.00203438 1.01812 0.225517 0.621639 0.621999C0.225157 1.01848 0.0016746 1.55574 0 2.11645V27.5096C0 28.0708 0.222945 28.609 0.619789 29.0059C1.01663 29.4027 1.55487 29.6257 2.11609 29.6257H19.0448V27.5096H2.11609V2.11645H10.5805V8.46473C10.5821 9.02544 10.8056 9.5627 11.2021 9.95918C11.5986 10.3557 12.1358 10.5791 12.6966 10.5808H19.0448V12.6969H21.1609ZM12.6966 8.46473V2.53967L18.6216 8.46473H12.6966Z" fill="#272727"/>
</svg>
