<svg width="34" height="34" viewBox="0 0 34 34" fill="none" xmlns="http://www.w3.org/2000/svg">
<path d="M17 34C26.3888 34 34 26.3888 34 17C34 7.61118 26.3888 0 17 0C7.61118 0 0 7.61118 0 17C0 26.3888 7.61118 34 17 34Z" fill="url(#paint0_linear_164_784)"/>
<path d="M6.33124 17.8316C8.31852 16.7369 10.5369 15.8233 12.6096 14.905C16.1755 13.401 19.7556 11.923 23.3717 10.5469C24.0753 10.3125 25.3395 10.0832 25.4634 11.1259C25.3956 12.6017 25.1164 14.069 24.9248 15.5362C24.4387 18.7628 23.8769 21.9784 23.329 25.1944C23.1402 26.2656 21.7982 26.8201 20.9396 26.1346C18.8761 24.7407 16.7967 23.3605 14.7595 21.9343C14.0922 21.2562 14.711 20.2825 15.307 19.7983C17.0066 18.1233 18.809 16.7003 20.4198 14.9388C20.8542 13.8896 19.5705 14.7738 19.147 15.0448C16.8203 16.6482 14.5505 18.3494 12.0974 19.7586C10.8444 20.4484 9.38393 19.8589 8.13145 19.474C7.00844 19.009 5.36283 18.5406 6.33112 17.8317L6.33124 17.8316Z" fill="white"/>
<defs>
<linearGradient id="paint0_linear_164_784" x1="12.752" y1="1.4178" x2="4.25198" y2="21.25" gradientUnits="userSpaceOnUse">
<stop stop-color="#37AEE2"/>
<stop offset="1" stop-color="#1E96C8"/>
</linearGradient>
</defs>
</svg>
