<svg width="62" height="47" viewBox="0 0 62 47" fill="none" xmlns="http://www.w3.org/2000/svg">
<path d="M0 38.4499V7.68998C0 5.65047 0.810192 3.69449 2.25234 2.25234C3.69449 0.810191 5.65047 0 7.68998 0H53.8298C55.8693 0 57.8253 0.810191 59.2675 2.25234C60.7096 3.69449 61.5198 5.65047 61.5198 7.68998V38.4499C61.5198 40.4894 60.7096 42.4454 59.2675 43.8875C57.8253 45.3297 55.8693 46.1399 53.8298 46.1399H7.68998C5.65047 46.1399 3.69449 45.3297 2.25234 43.8875C0.810192 42.4454 0 40.4894 0 38.4499ZM26.1075 11.8925C25.82 11.6879 25.4818 11.5663 25.1298 11.5411C24.7778 11.5159 24.4257 11.588 24.112 11.7496C23.7983 11.9112 23.5351 12.1561 23.3513 12.4573C23.1675 12.7586 23.0701 13.1046 23.0699 13.4575V32.6824C23.0701 33.0353 23.1675 33.3813 23.3513 33.6825C23.5351 33.9838 23.7983 34.2286 24.112 34.3902C24.4257 34.5518 24.7778 34.624 25.1298 34.5988C25.4818 34.5736 25.82 34.452 26.1075 34.2473L39.5649 24.6348C39.8141 24.457 40.0173 24.2222 40.1574 23.95C40.2976 23.6778 40.3707 23.3761 40.3707 23.0699C40.3707 22.7638 40.2976 22.462 40.1574 22.1898C40.0173 21.9176 39.8141 21.6829 39.5649 21.505L26.1075 11.8925Z" fill="#DEDEDE"/>
</svg>
