<svg width="60" height="60" viewBox="0 0 60 60" fill="none" xmlns="http://www.w3.org/2000/svg">
<path d="M33.9338 1.63135C31.7587 -0.543784 28.2337 -0.543784 26.0588 1.63135L1.63125 26.0641C-0.54375 28.2393 -0.54375 31.7607 1.63125 33.9321L26.0662 58.3686C28.2413 60.5438 31.7625 60.5438 33.9338 58.3686L58.3687 33.9321C60.5437 31.757 60.5437 28.2355 58.3687 26.0641L33.9338 1.63135ZM20.6025 22.6252C20.4816 22.6268 20.3617 22.6038 20.25 22.5574C20.1383 22.5111 20.0373 22.4425 19.953 22.3558C19.8688 22.2691 19.8031 22.1661 19.76 22.0532C19.717 21.9402 19.6974 21.8196 19.7025 21.6989C20.0588 15.3422 25.26 13.1258 30.015 13.1258C35.25 13.1258 40.035 15.8635 40.035 21.5263C40.035 25.5766 37.6537 27.5042 35.37 29.2406C32.6062 31.337 31.5825 32.1208 31.5825 34.8134V35.2072C31.5825 35.4559 31.4837 35.6943 31.3079 35.8702C31.1321 36.046 30.8936 36.1448 30.645 36.1448H27.6075C27.3614 36.1448 27.1252 36.0481 26.9498 35.8755C26.7744 35.7029 26.6739 35.4683 26.67 35.2222L26.655 34.4084C26.5125 30.9319 28.5112 28.7906 31.035 26.9567C33.2475 25.2916 34.6537 24.1965 34.6537 21.8151C34.6537 18.7212 32.2988 17.4348 29.7262 17.4348C26.715 17.4348 25.0275 19.2275 24.6938 21.6876C24.6262 22.2014 24.2138 22.6252 23.6963 22.6252H20.6025ZM29.3213 46.7879C27.1313 46.7879 25.5375 45.3103 25.5375 43.3115C25.5375 41.2413 27.1313 39.7862 29.325 39.7862C31.6088 39.7862 33.18 41.2413 33.18 43.3115C33.18 45.3103 31.605 46.7879 29.3213 46.7879Z" fill="#E0AF57"/>
</svg>
