<svg width="34" height="34" viewBox="0 0 34 34" fill="none" xmlns="http://www.w3.org/2000/svg">
<path d="M34 17C34 26.3888 26.3888 34 17 34C7.61116 34 0 26.3888 0 17C0 7.61116 7.61116 0 17 0C26.3888 0 34 7.61116 34 17Z" fill="#4680C2"/>
<path fill-rule="evenodd" clip-rule="evenodd" d="M27.7895 12.2691C27.9574 11.7412 27.7895 11.3573 27.0457 11.3573H24.5742C23.9504 11.3573 23.6624 11.6932 23.4945 12.0532C23.4945 12.0532 22.2228 15.1244 20.4472 17.1159C19.8713 17.6918 19.6074 17.8837 19.2955 17.8837C19.1275 17.8837 18.9116 17.6918 18.9116 17.1639V12.2451C18.9116 11.6212 18.7196 11.3333 18.1917 11.3333H14.3046C13.9207 11.3333 13.6808 11.6212 13.6808 11.9092C13.6808 12.509 14.5686 12.653 14.6646 14.3326V17.9797C14.6646 18.7716 14.5206 18.9155 14.2087 18.9155C13.3689 18.9155 11.3294 15.8202 10.1056 12.2931C9.86566 11.5972 9.62575 11.3333 9.00192 11.3333H6.50646C5.78665 11.3333 5.66667 11.6692 5.66667 12.0292C5.66667 12.677 6.50646 15.9402 9.57773 20.2592C11.6173 23.2105 14.5206 24.7941 17.136 24.7941C18.7196 24.7941 18.9116 24.4342 18.9116 23.8344V21.6029C18.9116 20.883 19.0555 20.7631 19.5594 20.7631C19.9193 20.7631 20.5672 20.955 22.0308 22.3707C23.7104 24.0503 23.9983 24.8181 24.9341 24.8181H27.4056C28.1254 24.8181 28.4613 24.4582 28.2694 23.7623C28.0534 23.0665 27.2376 22.0588 26.1818 20.859C25.606 20.1872 24.7422 19.4434 24.4782 19.0834C24.1183 18.6036 24.2143 18.4117 24.4782 17.9797C24.4543 17.9797 27.4775 13.7088 27.7895 12.2691Z" fill="white"/>
</svg>
