<svg width="34" height="34" viewBox="0 0 34 34" fill="none" xmlns="http://www.w3.org/2000/svg">
<path d="M17 34C26.3888 34 34 26.3888 34 17C34 7.61116 26.3888 0 17 0C7.61116 0 0 7.61116 0 17C0 26.3888 7.61116 34 17 34Z" fill="#E0AF57"/>
<path fill-rule="evenodd" clip-rule="evenodd" d="M17.5603 26.458H17.5561C15.8643 26.4575 14.2019 26.033 12.7254 25.2276L7.36664 26.6333L8.80074 21.3951C7.91612 19.862 7.45063 18.1231 7.45139 16.3414C7.45361 10.7679 11.9884 6.23334 17.5602 6.23334C20.2644 6.2345 22.8025 7.28724 24.711 9.198C26.6196 11.1087 27.6701 13.6484 27.669 16.3494C27.6668 21.9217 23.1338 26.4558 17.5603 26.458ZM12.9737 23.3976L13.2805 23.5797C14.5705 24.3452 16.0492 24.7503 17.5569 24.7508H17.5603C22.1912 24.7508 25.9603 20.9816 25.9622 16.3488C25.963 14.1038 25.0899 11.9929 23.5036 10.4047C21.9173 8.81656 19.8078 7.94151 17.5636 7.94073C12.9291 7.94073 9.15997 11.7095 9.15813 16.342C9.15748 17.9296 9.60168 19.4757 10.4427 20.8134L10.6425 21.1313L9.79372 24.2318L12.9737 23.3976ZM22.3071 18.5258C22.4833 18.6109 22.6022 18.6684 22.653 18.7532C22.7161 18.8585 22.7161 19.3642 22.5058 19.9543C22.2952 20.5443 21.2861 21.0828 20.8008 21.1553C20.3657 21.2204 19.815 21.2475 19.2099 21.0552C18.8431 20.9388 18.3726 20.7834 17.77 20.5232C15.4021 19.5007 13.8019 17.2057 13.4994 16.7719C13.4782 16.7415 13.4634 16.7203 13.4552 16.7092L13.4531 16.7065C13.3194 16.5282 12.4238 15.3332 12.4238 14.0964C12.4238 12.9329 12.9953 12.3231 13.2584 12.0424C13.2764 12.0231 13.293 12.0055 13.3078 11.9892C13.5393 11.7364 13.813 11.6731 13.9814 11.6731C14.1497 11.6731 14.3183 11.6747 14.4655 11.6821C14.4836 11.683 14.5025 11.6829 14.522 11.6828C14.6692 11.6819 14.8527 11.6808 15.0338 12.1157C15.1034 12.283 15.2053 12.5311 15.3128 12.7928C15.5301 13.3219 15.7703 13.9065 15.8125 13.9911C15.8757 14.1176 15.9178 14.265 15.8336 14.4337C15.8209 14.459 15.8093 14.4828 15.7981 14.5056C15.7348 14.6347 15.6883 14.7297 15.581 14.855C15.5388 14.9043 15.4952 14.9574 15.4516 15.0105C15.3647 15.1163 15.2778 15.2221 15.2021 15.2975C15.0757 15.4235 14.944 15.5601 15.0914 15.813C15.2387 16.0659 15.7456 16.893 16.4965 17.5627C17.3037 18.2827 18.0052 18.587 18.3608 18.7412C18.4302 18.7714 18.4865 18.7958 18.5278 18.8164C18.7802 18.9429 18.9276 18.9217 19.0749 18.7532C19.2223 18.5846 19.7064 18.0156 19.8747 17.7628C20.0431 17.51 20.2115 17.5521 20.443 17.6364C20.6746 17.7208 21.9164 18.3317 22.169 18.4582C22.2183 18.4828 22.2644 18.5051 22.3071 18.5258Z" fill="#FDFDFD"/>
</svg>
